<?xml version="1.0" encoding="UTF-8"?>
<svg id="Layer_1" xmlns="http://www.w3.org/2000/svg" version="1.1" xmlns:xlink="http://www.w3.org/1999/xlink" viewBox="0 0 512 512">
  <!-- Generator: Adobe Illustrator 30.4.0, SVG Export Plug-In . SVG Version: 2.1.4 Build 226)  -->
  <defs>
    <style>
      .st0 {
        isolation: isolate;
      }

      .st1 {
        fill: #3b82f6;
      }

      .st2 {
        fill: url(#linear-gradient);
      }
    </style>
    <linearGradient id="linear-gradient" x1="-142.72" y1="656.72" x2="-141.72" y2="655.72" gradientTransform="translate(73073 336241) scale(512 -512)" gradientUnits="userSpaceOnUse">
      <stop offset="0" stop-color="#0a1628"/>
      <stop offset="1" stop-color="#1e3a5f"/>
    </linearGradient>
  </defs>
  <rect class="st2" width="512" height="512" rx="96" ry="96"/>
  <g class="st0">
    <path class="st1" d="M159.28,288.49c-29.29,0-51.61-8.14-66.95-24.44-15.34-16.29-23.01-39.43-23.01-69.42,0-14.91,2.34-28.21,7.02-39.91s11.09-21.58,19.24-29.64c8.15-8.06,17.85-14.17,29.12-18.33,11.27-4.16,23.49-6.24,36.66-6.24,7.63,0,14.56.56,20.8,1.69,6.24,1.13,11.7,2.43,16.38,3.9,4.68,1.47,8.58,2.99,11.7,4.55,3.12,1.56,5.37,2.77,6.76,3.64l-11.7,32.76c-5.55-2.95-12-5.46-19.37-7.54-7.37-2.08-15.73-3.12-25.09-3.12-6.24,0-12.35,1.04-18.33,3.12s-11.27,5.42-15.86,10.01c-4.59,4.59-8.28,10.53-11.05,17.81-2.77,7.28-4.16,16.12-4.16,26.52,0,8.32.91,16.08,2.73,23.27,1.82,7.2,4.77,13.39,8.84,18.59,4.07,5.2,9.4,9.32,15.99,12.35,6.58,3.04,14.56,4.55,23.92,4.55,5.89,0,11.18-.34,15.86-1.04,4.68-.69,8.84-1.51,12.48-2.47,3.64-.95,6.85-2.04,9.62-3.25,2.77-1.21,5.29-2.34,7.54-3.38l11.18,32.5c-5.72,3.47-13.78,6.59-24.18,9.36-10.4,2.77-22.45,4.16-36.14,4.16Z"/>
    <path class="st1" d="M293.44,104.67c3.13,5.72,6.73,12.78,10.82,21.19,4.08,8.41,8.34,17.51,12.77,27.3,4.43,9.79,8.82,19.8,13.17,30.03,4.34,10.23,8.43,19.85,12.25,28.86,3.82-9.01,7.91-18.63,12.25-28.86,4.34-10.23,8.73-20.24,13.16-30.03,4.43-9.79,8.69-18.89,12.78-27.3,4.08-8.41,7.69-15.47,10.82-21.19h36.92c1.73,11.96,3.33,25.35,4.81,40.17,1.47,14.82,2.77,30.25,3.9,46.28,1.12,16.04,2.17,32.11,3.12,48.23.95,16.12,1.78,31.29,2.47,45.5h-39.52c-.52-17.5-1.21-36.57-2.08-57.2-.87-20.62-2.17-41.42-3.9-62.4-3.13,7.28-6.61,15.34-10.43,24.18-3.83,8.84-7.61,17.68-11.35,26.52-3.74,8.84-7.34,17.29-10.82,25.35-3.48,8.06-6.44,14.95-8.87,20.67h-28.34c-2.44-5.72-5.39-12.61-8.87-20.67-3.48-8.06-7.09-16.51-10.83-25.35-3.74-8.84-7.52-17.68-11.34-26.52-3.83-8.84-7.3-16.9-10.43-24.18-1.73,20.97-3.03,41.77-3.9,62.4-.87,20.63-1.56,39.7-2.08,57.2h-39.52c.69-14.21,1.52-29.38,2.47-45.5.95-16.12,1.99-32.2,3.12-48.23,1.13-16.03,2.43-31.46,3.9-46.28,1.47-14.82,3.08-28.21,4.81-40.17h38.74Z"/>
  </g>
  <g class="st0">
    <path class="st1" d="M129.03,356.6v10.51h-16.52v44.27h-12.33v-44.27h-16.52v-10.51h45.38Z"/>
    <path class="st1" d="M155.75,380.24c-1.05-.26-2.29-.54-3.72-.83-1.42-.29-2.95-.43-4.58-.43-.74,0-1.62.07-2.65.2-1.03.13-1.81.28-2.33.43v31.78h-11.78v-39.37c2.11-.74,4.6-1.44,7.47-2.09,2.87-.66,6.07-.99,9.6-.99.63,0,1.4.04,2.29.12.9.08,1.79.19,2.69.32.9.13,1.79.29,2.69.47.9.19,1.66.41,2.29.67l-1.98,9.72Z"/>
    <path class="st1" d="M178.2,368.69c3.48,0,6.38.4,8.7,1.19,2.32.79,4.18,1.92,5.57,3.4,1.4,1.48,2.38,3.27,2.96,5.38.58,2.11.87,4.45.87,7.04v24.51c-1.69.37-4.03.8-7.04,1.3-3,.5-6.64.75-10.91.75-2.69,0-5.13-.24-7.31-.71-2.19-.47-4.07-1.25-5.65-2.33-1.58-1.08-2.79-2.49-3.64-4.23-.84-1.74-1.27-3.87-1.27-6.4s.49-4.48,1.46-6.17c.97-1.69,2.28-3.03,3.91-4.03,1.63-1,3.5-1.73,5.61-2.17,2.11-.45,4.29-.67,6.56-.67,1.53,0,2.89.07,4.07.2,1.19.13,2.15.3,2.89.51v-1.11c0-2-.61-3.61-1.82-4.82-1.21-1.21-3.32-1.82-6.32-1.82-2,0-3.98.15-5.93.43-1.95.29-3.64.7-5.06,1.23l-1.5-9.49c.68-.21,1.54-.43,2.57-.67,1.03-.24,2.15-.45,3.36-.63,1.21-.18,2.49-.34,3.83-.47,1.34-.13,2.7-.2,4.07-.2ZM179.15,403.16c1.16,0,2.27-.03,3.32-.08,1.05-.05,1.9-.13,2.53-.24v-8.93c-.47-.1-1.19-.21-2.13-.32-.95-.1-1.82-.16-2.61-.16-1.11,0-2.15.07-3.12.2-.98.13-1.83.38-2.57.75-.74.37-1.32.87-1.74,1.5-.42.63-.63,1.42-.63,2.37,0,1.85.62,3.12,1.86,3.83,1.24.71,2.94,1.07,5.1,1.07Z"/>
    <path class="st1" d="M206.97,371.22c2-.58,4.58-1.12,7.75-1.62,3.16-.5,6.48-.75,9.96-.75s6.47.46,8.81,1.38c2.34.92,4.2,2.23,5.57,3.91,1.37,1.69,2.34,3.69,2.93,6.01.58,2.32.87,4.9.87,7.75v23.48h-11.78v-22.06c0-3.79-.5-6.48-1.5-8.06-1-1.58-2.87-2.37-5.61-2.37-.84,0-1.74.04-2.69.12s-1.79.17-2.53.28v32.1h-11.78v-40.16Z"/>
    <path class="st1" d="M265.47,402.92c2.16,0,3.69-.21,4.58-.63.9-.42,1.34-1.24,1.34-2.45,0-.95-.58-1.78-1.74-2.49-1.16-.71-2.92-1.51-5.3-2.41-1.84-.68-3.52-1.4-5.02-2.13-1.5-.74-2.78-1.62-3.83-2.65-1.05-1.03-1.87-2.25-2.45-3.68-.58-1.42-.87-3.13-.87-5.14,0-3.9,1.45-6.98,4.35-9.25,2.9-2.27,6.88-3.4,11.94-3.4,2.53,0,4.95.22,7.27.67,2.32.45,4.16.94,5.53,1.46l-2.06,9.17c-1.37-.47-2.86-.9-4.47-1.26-1.61-.37-3.41-.55-5.42-.55-3.69,0-5.53,1.03-5.53,3.08,0,.47.08.9.24,1.26.16.37.47.73.95,1.07.47.34,1.12.71,1.94,1.11.82.4,1.86.84,3.12,1.31,2.58.96,4.72,1.9,6.4,2.83,1.69.93,3.02,1.93,3.99,3.01.97,1.08,1.66,2.28,2.05,3.59.4,1.31.59,2.84.59,4.57,0,4.1-1.54,7.21-4.62,9.31-3.08,2.1-7.44,3.15-13.08,3.15-3.69,0-6.76-.32-9.21-.95-2.45-.63-4.15-1.16-5.1-1.58l1.98-9.57c2,.79,4.06,1.41,6.17,1.86,2.11.45,4.19.67,6.25.67Z"/>
    <path class="st1" d="M308.48,412.17c-3.43-.05-6.21-.42-8.34-1.11-2.13-.68-3.82-1.65-5.06-2.88s-2.08-2.74-2.53-4.51c-.45-1.76-.67-3.75-.67-5.97v-45.77l11.78-1.9v45.3c0,1.05.08,2,.24,2.85.16.84.46,1.56.91,2.13.45.58,1.09,1.05,1.94,1.42.84.37,1.98.61,3.4.71l-1.66,9.72Z"/>
    <path class="st1" d="M332.98,368.69c3.48,0,6.38.4,8.7,1.19,2.32.79,4.18,1.92,5.57,3.4,1.4,1.48,2.38,3.27,2.96,5.38.58,2.11.87,4.45.87,7.04v24.51c-1.69.37-4.03.8-7.04,1.3-3,.5-6.64.75-10.91.75-2.69,0-5.13-.24-7.31-.71-2.19-.47-4.07-1.25-5.65-2.33-1.58-1.08-2.79-2.49-3.64-4.23s-1.26-3.87-1.26-6.4.49-4.48,1.46-6.17c.97-1.69,2.28-3.03,3.91-4.03,1.63-1,3.5-1.73,5.61-2.17,2.11-.45,4.29-.67,6.56-.67,1.53,0,2.89.07,4.07.2,1.19.13,2.15.3,2.89.51v-1.11c0-2-.61-3.61-1.82-4.82-1.21-1.21-3.32-1.82-6.32-1.82-2,0-3.98.15-5.93.43-1.95.29-3.64.7-5.06,1.23l-1.5-9.49c.68-.21,1.54-.43,2.57-.67,1.03-.24,2.15-.45,3.36-.63,1.21-.18,2.49-.34,3.83-.47,1.34-.13,2.7-.2,4.07-.2ZM333.93,403.16c1.16,0,2.27-.03,3.32-.08,1.05-.05,1.9-.13,2.53-.24v-8.93c-.47-.1-1.19-.21-2.13-.32-.95-.1-1.82-.16-2.61-.16-1.11,0-2.15.07-3.12.2-.98.13-1.83.38-2.57.75-.74.37-1.32.87-1.74,1.5-.42.63-.63,1.42-.63,2.37,0,1.85.62,3.12,1.86,3.83,1.24.71,2.94,1.07,5.1,1.07Z"/>
    <path class="st1" d="M361.36,359.44l11.78-1.9v12.25h14.15v9.8h-14.15v14.62c0,2.48.44,4.45,1.3,5.93.87,1.48,2.62,2.21,5.26,2.21,1.26,0,2.57-.12,3.91-.36,1.34-.24,2.57-.57,3.68-.99l1.66,9.17c-1.42.58-3,1.08-4.74,1.5-1.74.42-3.87.63-6.4.63-3.21,0-5.88-.43-7.98-1.3-2.11-.87-3.79-2.08-5.06-3.64-1.27-1.55-2.15-3.44-2.65-5.65-.5-2.21-.75-4.66-.75-7.35v-34.94Z"/>
    <path class="st1" d="M393.3,390.91c0-3.69.57-6.92,1.7-9.68,1.13-2.77,2.62-5.07,4.47-6.92s3.96-3.24,6.36-4.19c2.4-.95,4.86-1.42,7.39-1.42,5.9,0,10.57,1.81,13.99,5.42,3.43,3.61,5.14,8.92,5.14,15.93,0,.68-.03,1.44-.08,2.25-.05.82-.11,1.54-.16,2.17h-26.72c.26,2.42,1.4,4.35,3.4,5.77,2,1.42,4.69,2.13,8.06,2.13,2.16,0,4.28-.2,6.36-.59,2.08-.4,3.78-.88,5.1-1.46l1.58,9.57c-.63.32-1.48.63-2.53.95-1.05.32-2.23.59-3.52.83-1.29.24-2.68.44-4.15.59-1.48.16-2.95.24-4.43.24-3.74,0-7-.55-9.76-1.66-2.77-1.11-5.06-2.62-6.88-4.54s-3.16-4.2-4.03-6.84c-.87-2.63-1.3-5.48-1.3-8.54ZM420.97,386.4c-.05-1-.22-1.98-.51-2.92-.29-.95-.74-1.79-1.34-2.53-.61-.74-1.37-1.34-2.29-1.82-.92-.47-2.07-.71-3.44-.71s-2.45.22-3.4.67c-.95.45-1.74,1.04-2.37,1.78-.63.74-1.12,1.59-1.46,2.57-.34.98-.59,1.96-.75,2.96h15.57Z"/>
  </g>
</svg>