<?xml version="1.0" encoding="UTF-8"?>
<svg id="Layer_1" xmlns="http://www.w3.org/2000/svg" version="1.1" xmlns:xlink="http://www.w3.org/1999/xlink" viewBox="0 0 1200 630">
  <!-- Generator: Adobe Illustrator 30.4.0, SVG Export Plug-In . SVG Version: 2.1.4 Build 226)  -->
  <defs>
    <style>
      .st0 {
        isolation: isolate;
      }

      .st1 {
        fill: #3b82f6;
      }

      .st2 {
        fill: #475569;
      }

      .st3 {
        fill: #60a5fa;
      }

      .st4 {
        fill: #1e3a5f;
      }

      .st5 {
        fill: url(#linear-gradient);
      }
    </style>
    <linearGradient id="linear-gradient" x1="199.83" y1="715.87" x2="200.83" y2="714.87" gradientTransform="translate(-239800 450996) scale(1200 -630)" gradientUnits="userSpaceOnUse">
      <stop offset="0" stop-color="#0a1628"/>
      <stop offset="1" stop-color="#1e3a5f"/>
    </linearGradient>
  </defs>
  <rect class="st5" width="1200" height="630"/>
  <g class="st0">
    <path class="st1" d="M279.42,273.96c-12.13,0-21.38-3.37-27.73-10.12-6.35-6.75-9.53-16.33-9.53-28.75,0-6.17.97-11.68,2.91-16.53,1.94-4.85,4.59-8.94,7.97-12.28,3.37-3.34,7.39-5.87,12.06-7.59,4.67-1.72,9.73-2.58,15.18-2.58,3.16,0,6.03.23,8.61.7,2.58.47,4.85,1.01,6.78,1.62,1.94.61,3.55,1.24,4.85,1.88s2.22,1.15,2.8,1.51l-4.85,13.57c-2.3-1.22-4.97-2.26-8.02-3.12-3.05-.86-6.52-1.29-10.39-1.29-2.58,0-5.12.43-7.59,1.29-2.48.86-4.67,2.24-6.57,4.15-1.9,1.9-3.43,4.36-4.58,7.38-1.15,3.02-1.72,6.68-1.72,10.98,0,3.45.38,6.66,1.13,9.64.75,2.98,1.97,5.55,3.66,7.7,1.69,2.15,3.89,3.86,6.62,5.12,2.73,1.26,6.03,1.88,9.91,1.88,2.44,0,4.63-.14,6.57-.43,1.94-.29,3.66-.63,5.17-1.02,1.51-.39,2.84-.84,3.98-1.35,1.15-.5,2.19-.97,3.12-1.4l4.63,13.46c-2.37,1.44-5.71,2.73-10.02,3.88-4.31,1.15-9.3,1.72-14.97,1.72Z"/>
    <path class="st1" d="M334.98,197.82c1.3,2.37,2.79,5.3,4.48,8.78,1.69,3.48,3.45,7.25,5.29,11.31,1.84,4.06,3.65,8.2,5.45,12.44,1.8,4.24,3.49,8.22,5.08,11.95,1.58-3.73,3.27-7.72,5.07-11.95,1.8-4.24,3.62-8.38,5.45-12.44,1.84-4.06,3.6-7.82,5.29-11.31,1.69-3.48,3.19-6.41,4.48-8.78h15.29c.72,4.95,1.38,10.5,1.99,16.64.61,6.14,1.15,12.53,1.62,19.17.47,6.64.9,13.3,1.29,19.98.39,6.68.74,12.96,1.02,18.85h-16.37c-.22-7.25-.5-15.15-.86-23.69-.36-8.54-.9-17.16-1.62-25.85-1.3,3.02-2.74,6.35-4.32,10.02-1.59,3.66-3.15,7.32-4.7,10.98s-3.04,7.16-4.48,10.5c-1.44,3.34-2.67,6.19-3.67,8.56h-11.74c-1.01-2.37-2.23-5.22-3.67-8.56-1.44-3.34-2.94-6.84-4.48-10.5s-3.11-7.32-4.7-10.98c-1.59-3.66-3.03-7-4.32-10.02-.72,8.69-1.26,17.3-1.62,25.85-.36,8.54-.65,16.44-.86,23.69h-16.37c.29-5.89.63-12.17,1.02-18.85.39-6.68.82-13.33,1.29-19.98.47-6.64,1-13.03,1.62-19.17.61-6.14,1.27-11.68,1.99-16.64h16.05Z"/>
    <path class="st1" d="M492.96,197.82v14.32h-22.51v60.31h-16.8v-60.31h-22.51v-14.32h61.81Z"/>
    <path class="st1" d="M529.36,230.02c-1.44-.36-3.12-.74-5.06-1.13-1.94-.39-4.02-.59-6.25-.59-1.01,0-2.21.09-3.61.27-1.4.18-2.46.38-3.18.59v43.29h-16.05v-53.63c2.87-1,6.26-1.96,10.18-2.85,3.91-.9,8.27-1.35,13.08-1.35.86,0,1.9.05,3.12.16,1.22.11,2.44.25,3.66.43,1.22.18,2.44.4,3.66.65,1.22.25,2.26.56,3.12.92l-2.69,13.25Z"/>
    <path class="st1" d="M559.94,214.3c4.74,0,8.69.54,11.85,1.62,3.16,1.08,5.69,2.62,7.59,4.63,1.9,2.01,3.25,4.45,4.04,7.32.79,2.87,1.18,6.07,1.18,9.58v33.38c-2.3.5-5.49,1.1-9.58,1.78-4.09.68-9.05,1.02-14.86,1.02-3.66,0-6.98-.32-9.96-.97-2.98-.65-5.55-1.7-7.7-3.18-2.15-1.47-3.81-3.39-4.95-5.76-1.15-2.37-1.72-5.28-1.72-8.72s.66-6.1,1.99-8.4c1.33-2.3,3.1-4.13,5.33-5.49,2.22-1.36,4.77-2.35,7.65-2.96,2.87-.61,5.85-.92,8.94-.92,2.08,0,3.93.09,5.55.27,1.62.18,2.92.41,3.93.7v-1.51c0-2.73-.83-4.92-2.48-6.57-1.65-1.65-4.52-2.48-8.62-2.48-2.73,0-5.42.2-8.08.59-2.66.39-4.95.95-6.89,1.67l-2.05-12.92c.93-.29,2.1-.59,3.5-.92,1.4-.32,2.92-.61,4.58-.86,1.65-.25,3.39-.47,5.22-.65,1.83-.18,3.68-.27,5.55-.27ZM561.23,261.25c1.58,0,3.09-.04,4.52-.11,1.44-.07,2.58-.18,3.45-.32v-12.17c-.65-.14-1.61-.29-2.91-.43-1.29-.14-2.48-.22-3.55-.22-1.51,0-2.93.09-4.25.27-1.33.18-2.5.52-3.5,1.02-1.01.5-1.8,1.18-2.37,2.05-.58.86-.86,1.94-.86,3.23,0,2.51.84,4.25,2.53,5.22,1.69.97,4,1.45,6.95,1.45Z"/>
    <path class="st1" d="M599.14,217.74c2.73-.79,6.25-1.52,10.55-2.21,4.31-.68,8.83-1.02,13.57-1.02s8.81.63,12.01,1.88c3.19,1.26,5.72,3.03,7.59,5.33,1.87,2.3,3.19,5.03,3.98,8.18.79,3.16,1.18,6.68,1.18,10.55v31.98h-16.05v-30.04c0-5.17-.68-8.83-2.05-10.98-1.36-2.15-3.91-3.23-7.65-3.23-1.15,0-2.37.05-3.66.16s-2.44.23-3.45.38v43.72h-16.05v-54.71Z"/>
    <path class="st1" d="M678.83,260.93c2.94,0,5.02-.29,6.25-.86,1.22-.57,1.83-1.69,1.83-3.34,0-1.29-.79-2.42-2.37-3.39-1.58-.97-3.98-2.06-7.22-3.28-2.51-.93-4.79-1.9-6.84-2.91-2.05-1-3.79-2.21-5.22-3.61-1.44-1.4-2.55-3.07-3.34-5.01-.79-1.94-1.18-4.27-1.18-7,0-5.31,1.97-9.51,5.92-12.6,3.95-3.09,9.37-4.63,16.26-4.63,3.45,0,6.75.31,9.91.92,3.16.61,5.67,1.28,7.54,1.99l-2.8,12.49c-1.87-.65-3.9-1.22-6.08-1.72-2.19-.5-4.65-.75-7.38-.75-5.03,0-7.54,1.4-7.54,4.2,0,.65.11,1.22.32,1.72.22.5.65.99,1.29,1.45.65.47,1.52.97,2.64,1.51,1.11.54,2.53,1.14,4.25,1.79,3.52,1.3,6.42,2.59,8.72,3.85,2.3,1.27,4.11,2.63,5.44,4.1,1.33,1.47,2.26,3.1,2.8,4.89.54,1.79.81,3.87.81,6.23,0,5.59-2.1,9.81-6.3,12.68-4.2,2.86-10.14,4.3-17.82,4.3-5.03,0-9.21-.43-12.55-1.29-3.34-.86-5.65-1.58-6.95-2.15l2.69-13.03c2.73,1.08,5.53,1.92,8.4,2.53,2.87.61,5.71.92,8.51.92Z"/>
    <path class="st1" d="M737.41,273.53c-4.67-.07-8.45-.58-11.36-1.51-2.91-.93-5.21-2.24-6.89-3.93-1.69-1.69-2.84-3.73-3.45-6.14-.61-2.4-.92-5.12-.92-8.13v-62.35l16.05-2.58v61.7c0,1.44.11,2.73.32,3.88.22,1.15.63,2.12,1.24,2.91.61.79,1.49,1.44,2.64,1.94,1.15.5,2.69.83,4.63.97l-2.26,13.25Z"/>
    <path class="st1" d="M770.79,214.3c4.74,0,8.69.54,11.85,1.62,3.16,1.08,5.69,2.62,7.59,4.63,1.9,2.01,3.25,4.45,4.04,7.32.79,2.87,1.18,6.07,1.18,9.58v33.38c-2.3.5-5.49,1.1-9.58,1.78-4.09.68-9.05,1.02-14.86,1.02-3.66,0-6.98-.32-9.96-.97-2.98-.65-5.55-1.7-7.7-3.18-2.15-1.47-3.81-3.39-4.95-5.76-1.15-2.37-1.72-5.28-1.72-8.72s.66-6.1,1.99-8.4c1.33-2.3,3.1-4.13,5.33-5.49,2.22-1.36,4.77-2.35,7.65-2.96,2.87-.61,5.85-.92,8.94-.92,2.08,0,3.93.09,5.55.27,1.62.18,2.92.41,3.93.7v-1.51c0-2.73-.83-4.92-2.48-6.57-1.65-1.65-4.52-2.48-8.62-2.48-2.73,0-5.42.2-8.08.59-2.66.39-4.95.95-6.89,1.67l-2.05-12.92c.93-.29,2.1-.59,3.5-.92,1.4-.32,2.92-.61,4.58-.86,1.65-.25,3.39-.47,5.22-.65,1.83-.18,3.68-.27,5.55-.27ZM772.08,261.25c1.58,0,3.09-.04,4.52-.11,1.44-.07,2.58-.18,3.45-.32v-12.17c-.65-.14-1.61-.29-2.91-.43-1.29-.14-2.48-.22-3.55-.22-1.51,0-2.93.09-4.25.27-1.33.18-2.5.52-3.5,1.02-1.01.5-1.8,1.18-2.37,2.05-.58.86-.86,1.94-.86,3.23,0,2.51.84,4.25,2.53,5.22,1.69.97,4,1.45,6.95,1.45Z"/>
    <path class="st1" d="M809.45,201.7l16.05-2.58v16.69h19.28v13.35h-19.28v19.92c0,3.38.59,6.07,1.78,8.08,1.18,2.01,3.57,3.02,7.16,3.02,1.72,0,3.5-.16,5.33-.48,1.83-.32,3.5-.77,5.01-1.35l2.26,12.49c-1.94.79-4.09,1.47-6.46,2.05s-5.28.86-8.72.86c-4.38,0-8.01-.59-10.88-1.78-2.87-1.18-5.17-2.84-6.89-4.95-1.72-2.12-2.93-4.68-3.61-7.7-.68-3.02-1.02-6.35-1.02-10.02v-47.6Z"/>
    <path class="st1" d="M908.63,244.02c0,4.45-.65,8.53-1.94,12.22-1.29,3.7-3.16,6.86-5.6,9.48-2.44,2.62-5.37,4.65-8.78,6.08-3.41,1.44-7.23,2.15-11.47,2.15s-7.95-.72-11.36-2.15c-3.41-1.44-6.34-3.46-8.78-6.08-2.44-2.62-4.34-5.78-5.71-9.48-1.36-3.7-2.05-7.77-2.05-12.22s.7-8.51,2.1-12.17c1.4-3.66,3.34-6.78,5.81-9.37,2.48-2.58,5.42-4.59,8.83-6.03,3.41-1.44,7.12-2.15,11.15-2.15s7.84.72,11.25,2.15c3.41,1.44,6.33,3.45,8.78,6.03,2.44,2.58,4.34,5.71,5.71,9.37,1.36,3.66,2.05,7.72,2.05,12.17ZM892.26,244.02c0-4.95-.99-8.85-2.96-11.68-1.98-2.84-4.79-4.25-8.45-4.25s-6.5,1.42-8.51,4.25c-2.01,2.84-3.02,6.73-3.02,11.68s1,8.88,3.02,11.79c2.01,2.91,4.85,4.36,8.51,4.36s6.48-1.45,8.45-4.36c1.97-2.91,2.96-6.84,2.96-11.79Z"/>
    <path class="st1" d="M955.15,230.02c-1.44-.36-3.12-.74-5.06-1.13-1.94-.39-4.02-.59-6.25-.59-1.01,0-2.21.09-3.61.27-1.4.18-2.46.38-3.18.59v43.29h-16.05v-53.63c2.87-1,6.26-1.96,10.18-2.85,3.91-.9,8.27-1.35,13.08-1.35.86,0,1.9.05,3.12.16,1.22.11,2.44.25,3.66.43,1.22.18,2.44.4,3.66.65,1.22.25,2.26.56,3.12.92l-2.69,13.25Z"/>
  </g>
  <g class="st0">
    <path class="st3" d="M395.53,359.08h4.76l8.06,20.58h-4.76l-1.68-4.68h-8.23l-1.68,4.68h-4.54l8.06-20.58ZM400.54,371.15l-2.72-7.5h-.06l-2.69,7.5h5.46Z"/>
    <path class="st3" d="M420.54,379.66h-4.56v-20.58h4.56v20.58Z"/>
    <path class="st3" d="M457.35,363.12h-5.94v16.55h-4.54v-16.55h-5.94v-4.03h16.41v4.03Z"/>
    <path class="st3" d="M477.52,379.66l-5.1-7.34h-2.38v7.34h-4.56v-20.58h8.09c2.39,0,4.28.56,5.68,1.67s2.1,2.72,2.1,4.83c0,1.55-.39,2.86-1.16,3.93-.77,1.07-1.87,1.83-3.29,2.28l5.77,7.87h-5.15ZM473.4,368.49c.99,0,1.76-.22,2.32-.67.56-.45.84-1.15.84-2.1s-.29-1.63-.87-2.1-1.35-.7-2.32-.7h-3.33v5.57h3.36Z"/>
    <path class="st3" d="M497.39,359.08h4.76l8.06,20.58h-4.76l-1.68-4.68h-8.23l-1.68,4.68h-4.54l8.06-20.58ZM502.41,371.15l-2.72-7.5h-.06l-2.69,7.5h5.46Z"/>
    <path class="st3" d="M517.83,359.08h4.65l8.54,13.08h.11v-13.08h4.31v20.58h-4.45l-8.76-13.41h-.08v13.41h-4.31v-20.58Z"/>
    <path class="st3" d="M551.49,362.61c-.78,0-1.43.17-1.93.5s-.76.81-.76,1.43.27,1.1.83,1.44c.55.35,1.44.69,2.67,1.02,2.35.63,4.1,1.47,5.25,2.52,1.15,1.04,1.72,2.47,1.72,4.28,0,2.04-.72,3.58-2.16,4.65-1.44,1.06-3.33,1.6-5.68,1.6-1.49,0-3-.32-4.51-.97-1.51-.64-2.69-1.51-3.53-2.59l2.72-2.86c1.55,1.66,3.36,2.49,5.43,2.49.93,0,1.69-.18,2.27-.55s.87-.89.87-1.58c0-.78-.3-1.38-.91-1.78-.61-.4-1.64-.8-3.09-1.19-2.22-.6-3.85-1.38-4.9-2.35s-1.57-2.28-1.57-3.92c0-1.25.32-2.34.95-3.26.63-.92,1.51-1.62,2.63-2.1,1.12-.48,2.39-.71,3.81-.71s2.77.28,4.05.85c1.28.57,2.33,1.35,3.15,2.34l-2.88,2.83c-1.14-1.4-2.61-2.1-4.42-2.1Z"/>
    <path class="st3" d="M567.56,359.08h4.56v16.55h10.19v4.03h-14.76v-20.58Z"/>
    <path class="st3" d="M596.46,359.08h4.76l8.06,20.58h-4.76l-1.68-4.68h-8.23l-1.68,4.68h-4.54l8.06-20.58ZM601.47,371.15l-2.72-7.5h-.06l-2.69,7.5h5.46Z"/>
    <path class="st3" d="M629.78,363.12h-5.94v16.55h-4.54v-16.55h-5.94v-4.03h16.41v4.03Z"/>
    <path class="st3" d="M642.1,379.66h-4.56v-20.58h4.56v20.58Z"/>
    <path class="st3" d="M655.51,378.64c-1.59-.94-2.83-2.23-3.72-3.85-.9-1.62-1.34-3.42-1.34-5.4s.45-3.76,1.34-5.39c.9-1.63,2.14-2.93,3.72-3.88s3.36-1.43,5.32-1.43,3.76.47,5.33,1.41,2.81,2.23,3.71,3.86c.9,1.63,1.34,3.44,1.34,5.42s-.45,3.78-1.34,5.4c-.9,1.62-2.13,2.91-3.71,3.85-1.58.94-3.36,1.41-5.33,1.41s-3.73-.47-5.32-1.41ZM655.93,372.78c.47.99,1.12,1.75,1.96,2.3.84.54,1.82.81,2.94.81s2.13-.27,2.97-.81,1.49-1.31,1.95-2.31c.46-1,.69-2.15.69-3.46s-.23-2.39-.7-3.36c-.47-.97-1.12-1.72-1.97-2.25-.85-.53-1.82-.8-2.93-.8s-2.08.27-2.93.81c-.85.54-1.51,1.3-1.97,2.28-.47.98-.7,2.11-.7,3.4s.23,2.4.7,3.39Z"/>
    <path class="st3" d="M679.59,359.08h4.65l8.54,13.08h.11v-13.08h4.31v20.58h-4.45l-8.76-13.41h-.08v13.41h-4.31v-20.58Z"/>
    <path class="st3" d="M734.02,363.12h-5.94v16.55h-4.54v-16.55h-5.94v-4.03h16.41v4.03Z"/>
    <path class="st3" d="M745.33,378.64c-1.59-.94-2.83-2.23-3.72-3.85-.9-1.62-1.34-3.42-1.34-5.4s.45-3.76,1.34-5.39c.9-1.63,2.14-2.93,3.72-3.88s3.36-1.43,5.32-1.43,3.76.47,5.33,1.41,2.81,2.23,3.71,3.86c.9,1.63,1.34,3.44,1.34,5.42s-.45,3.78-1.34,5.4c-.9,1.62-2.13,2.91-3.71,3.85-1.58.94-3.36,1.41-5.33,1.41s-3.73-.47-5.32-1.41ZM745.75,372.78c.47.99,1.12,1.75,1.96,2.3.84.54,1.82.81,2.94.81s2.13-.27,2.97-.81,1.49-1.31,1.95-2.31c.46-1,.69-2.15.69-3.46s-.23-2.39-.7-3.36c-.47-.97-1.12-1.72-1.97-2.25-.85-.53-1.82-.8-2.93-.8s-2.08.27-2.93.81c-.85.54-1.51,1.3-1.97,2.28-.47.98-.7,2.11-.7,3.4s.23,2.4.7,3.39Z"/>
    <path class="st3" d="M773.72,378.64c-1.59-.94-2.83-2.23-3.72-3.85-.9-1.62-1.34-3.42-1.34-5.4s.45-3.76,1.34-5.39c.9-1.63,2.14-2.93,3.72-3.88s3.36-1.43,5.32-1.43,3.76.47,5.33,1.41,2.81,2.23,3.71,3.86c.9,1.63,1.34,3.44,1.34,5.42s-.45,3.78-1.34,5.4-2.13,2.91-3.71,3.85c-1.58.94-3.36,1.41-5.33,1.41s-3.73-.47-5.32-1.41ZM774.14,372.78c.47.99,1.12,1.75,1.96,2.3.84.54,1.82.81,2.94.81s2.13-.27,2.97-.81,1.49-1.31,1.95-2.31c.46-1,.69-2.15.69-3.46s-.23-2.39-.7-3.36c-.47-.97-1.12-1.72-1.97-2.25-.85-.53-1.82-.8-2.93-.8s-2.08.27-2.93.81c-.85.54-1.51,1.3-1.97,2.28-.47.98-.7,2.11-.7,3.4s.23,2.4.7,3.39Z"/>
    <path class="st3" d="M797.8,359.08h4.56v16.55h10.19v4.03h-14.76v-20.58Z"/>
  </g>
  <path class="st4" d="M521,420h158c.55,0,1,.45,1,1h0c0,.55-.45,1-1,1h-158c-.55,0-1-.45-1-1h0c0-.55.45-1,1-1Z"/>
  <g class="st0">
    <path class="st2" d="M497.27,469.13c-.97.61-2.07.91-3.32.91s-2.42-.3-3.43-.89c-1.01-.59-1.81-1.41-2.38-2.46-.57-1.04-.85-2.21-.85-3.51s.29-2.47.85-3.51,1.36-1.87,2.37-2.47c1.01-.6,2.14-.9,3.4-.9,1.04,0,2.01.21,2.91.62.89.41,1.62.98,2.17,1.68l-1.91,1.91c-.46-.52-.93-.9-1.43-1.14s-1.07-.37-1.72-.37c-.7,0-1.31.18-1.85.53-.54.35-.96.85-1.26,1.48s-.45,1.35-.45,2.17.15,1.54.45,2.17.73,1.12,1.28,1.48c.55.35,1.19.53,1.93.53s1.3-.16,1.8-.49c.5-.33.94-.81,1.31-1.43l2.23,1.24c-.43,1.03-1.13,1.85-2.1,2.46Z"/>
    <path class="st2" d="M507.4,469.13c-1.02-.61-1.82-1.43-2.39-2.47-.58-1.04-.86-2.2-.86-3.47s.29-2.41.86-3.46c.58-1.05,1.37-1.88,2.39-2.49,1.02-.61,2.16-.92,3.42-.92s2.41.3,3.43.91c1.01.61,1.81,1.43,2.39,2.48.58,1.05.86,2.21.86,3.48s-.29,2.43-.86,3.47c-.58,1.04-1.37,1.87-2.39,2.47-1.01.61-2.16.91-3.43.91s-2.4-.3-3.42-.91ZM507.67,465.36c.3.64.72,1.13,1.26,1.48.54.35,1.17.52,1.89.52s1.37-.17,1.91-.52c.54-.35.96-.84,1.25-1.49.29-.64.44-1.38.44-2.22s-.15-1.54-.45-2.16c-.3-.62-.72-1.11-1.27-1.45-.55-.34-1.17-.51-1.88-.51s-1.34.17-1.88.52c-.55.35-.97.84-1.27,1.47s-.45,1.36-.45,2.19.15,1.54.45,2.18Z"/>
    <path class="st2" d="M530.13,464.2h.07l4.28-7.65h2.79v13.23h-2.77v-8.14h-.07l-3.42,6.34h-1.75l-3.42-6.34h-.05v8.14h-2.77v-13.23h2.84l4.27,7.65Z"/>
    <path class="st2" d="M543.53,456.55h5.26c1.56,0,2.79.38,3.7,1.12.91.75,1.36,1.83,1.36,3.25s-.45,2.5-1.35,3.25-2.11,1.12-3.64,1.12h-2.39v4.48h-2.93v-13.23ZM548.66,462.84c.64,0,1.15-.16,1.54-.49.39-.32.58-.8.58-1.42s-.2-1.1-.58-1.42c-.39-.32-.9-.49-1.54-.49h-2.2v3.82h2.2Z"/>
    <path class="st2" d="M559.24,456.55h2.93v10.64h6.55v2.59h-9.49v-13.23Z"/>
    <path class="st2" d="M573.98,456.55h9.4v2.52h-6.46v2.68h5.94v2.48h-5.94v3.02h6.77v2.52h-9.7v-13.23Z"/>
    <path class="st2" d="M592.88,462.91l-4.21-6.35h3.47l2.56,4.19,2.56-4.19h3.42l-4.18,6.37,4.61,6.86h-3.49l-2.95-4.61-2.93,4.61h-3.46l4.61-6.88Z"/>
    <path class="st2" d="M621.63,464.2h.07l4.28-7.65h2.79v13.23h-2.77v-8.14h-.07l-3.42,6.34h-1.75l-3.42-6.34h-.05v8.14h-2.77v-13.23h2.84l4.27,7.65Z"/>
    <path class="st2" d="M637.72,469.78h-2.93v-13.23h2.93v13.23Z"/>
    <path class="st2" d="M648.18,458.82c-.5,0-.92.11-1.24.32-.32.22-.49.52-.49.92s.18.71.53.93c.35.22.93.44,1.72.66,1.51.41,2.64.95,3.38,1.62.74.67,1.11,1.59,1.11,2.75,0,1.31-.46,2.3-1.39,2.99-.92.68-2.14,1.03-3.65,1.03-.96,0-1.93-.21-2.9-.62-.97-.41-1.73-.97-2.27-1.67l1.75-1.84c1,1.07,2.16,1.6,3.49,1.6.6,0,1.09-.12,1.46-.35s.56-.57.56-1.02c0-.5-.2-.88-.58-1.14-.39-.26-1.05-.51-1.99-.76-1.43-.38-2.48-.89-3.15-1.51-.67-.62-1.01-1.46-1.01-2.52,0-.8.2-1.5.61-2.1.41-.59.97-1.04,1.69-1.35.72-.31,1.54-.46,2.45-.46s1.78.18,2.6.55c.82.37,1.5.87,2.03,1.5l-1.85,1.82c-.73-.9-1.68-1.35-2.84-1.35Z"/>
    <path class="st2" d="M663.12,458.82c-.5,0-.92.11-1.24.32-.32.22-.49.52-.49.92s.18.71.53.93c.35.22.93.44,1.72.66,1.51.41,2.64.95,3.38,1.62.74.67,1.11,1.59,1.11,2.75,0,1.31-.46,2.3-1.39,2.99-.92.68-2.14,1.03-3.65,1.03-.96,0-1.93-.21-2.9-.62-.97-.41-1.73-.97-2.27-1.67l1.75-1.84c1,1.07,2.16,1.6,3.49,1.6.6,0,1.09-.12,1.46-.35s.56-.57.56-1.02c0-.5-.2-.88-.58-1.14-.39-.26-1.05-.51-1.99-.76-1.43-.38-2.48-.89-3.15-1.51-.67-.62-1.01-1.46-1.01-2.52,0-.8.2-1.5.61-2.1.41-.59.97-1.04,1.69-1.35.72-.31,1.54-.46,2.45-.46s1.78.18,2.6.55c.82.37,1.5.87,2.03,1.5l-1.85,1.82c-.73-.9-1.68-1.35-2.84-1.35Z"/>
    <path class="st2" d="M676.53,469.78h-2.93v-13.23h2.93v13.23Z"/>
    <path class="st2" d="M685.29,469.13c-1.02-.61-1.82-1.43-2.39-2.47-.58-1.04-.86-2.2-.86-3.47s.29-2.41.86-3.46c.58-1.05,1.37-1.88,2.39-2.49,1.02-.61,2.16-.92,3.42-.92s2.42.3,3.43.91c1.01.61,1.81,1.43,2.39,2.48.58,1.05.86,2.21.86,3.48s-.29,2.43-.86,3.47c-.58,1.04-1.37,1.87-2.39,2.47-1.01.61-2.16.91-3.43.91s-2.4-.3-3.42-.91ZM685.56,465.36c.3.64.72,1.13,1.26,1.48.54.35,1.17.52,1.89.52s1.37-.17,1.91-.52c.54-.35.96-.84,1.25-1.49.29-.64.44-1.38.44-2.22s-.15-1.54-.45-2.16c-.3-.62-.72-1.11-1.27-1.45-.55-.34-1.17-.51-1.88-.51s-1.33.17-1.88.52c-.55.35-.97.84-1.27,1.47s-.45,1.36-.45,2.19.15,1.54.45,2.18Z"/>
    <path class="st2" d="M700.92,456.55h2.99l5.49,8.41h.07v-8.41h2.77v13.23h-2.86l-5.63-8.62h-.05v8.62h-2.77v-13.23Z"/>
  </g>
</svg>